<svg id="Ebene_1" data-name="Ebene 1" xmlns="http://www.w3.org/2000/svg" xmlns:xlink="http://www.w3.org/1999/xlink" viewBox="0 0 198.56 36.2"><defs><style>.cls-1{fill:none;}.cls-2{clip-path:url(#clip-path);}.cls-3,.cls-4,.cls-7{fill:#1a171b;}.cls-4,.cls-7{font-size:8.2px;font-family:ChronicleTextG4-Roman, Chronicle Text G4;}.cls-5{letter-spacing:0.01em;}.cls-6,.cls-7{letter-spacing:0.01em;}.cls-8{letter-spacing:0em;}.cls-9{letter-spacing:0.01em;}.cls-10{letter-spacing:0.01em;}.cls-11{letter-spacing:0em;}.cls-12{letter-spacing:0.01em;}</style><clipPath id="clip-path" transform="translate(-0.51 -7.45)"><rect class="cls-1" x="-33" y="-25" width="263.59" height="100"/></clipPath></defs><g class="cls-2"><g class="cls-2"><path class="cls-3" d="M14.59,23.26a2.33,2.33,0,0,0-2.34-2.35,2.3,2.3,0,0,0-2.31,2.35,2.26,2.26,0,0,0,2.31,2.3,2.28,2.28,0,0,0,2.34-2.3" transform="translate(-0.51 -7.45)"/><path class="cls-3" d="M7.1,29.49a2.29,2.29,0,0,0,2.35-2.3A2.33,2.33,0,0,0,7.1,24.84a2.29,2.29,0,0,0-2.3,2.35,2.25,2.25,0,0,0,2.3,2.3" transform="translate(-0.51 -7.45)"/><path class="cls-3" d="M16.81,37.57H4.93V31.93a2,2,0,0,0-2.21-2.17A2,2,0,0,0,.51,31.93v8.53c0,.86.36,1.27,1.22,1.27H16.81a2.08,2.08,0,1,0,0-4.16" transform="translate(-0.51 -7.45)"/><path class="cls-3" d="M17.75,8.72H2.67A2,2,0,0,0,.51,10.8a2,2,0,0,0,2.16,2.07H14.55v5.65a2,2,0,0,0,2.21,2.16A2,2,0,0,0,19,18.52V10c0-.86-.36-1.26-1.22-1.26" transform="translate(-0.51 -7.45)"/><path class="cls-3" d="M43,24.34c1.79-.63,2.87-1.68,2.87-4.43V15.63c0-4.52-2.71-6.91-6.91-6.91H26.66c-.86,0-1.22.4-1.22,1.26V40.46c0,.86.36,1.27,1.22,1.27H39.43c4.2,0,6.91-2.4,6.91-6.91V29.13c0-2.92-1-4.33-3.32-4.79M29.86,12.87h9.21c1.67,0,2.4,1,2.4,2.67v4.29a2.3,2.3,0,0,1-2.58,2.57h-9Zm12.06,22c0,1.62-.73,2.66-2.4,2.66H29.86V26.46h9c1.9,0,3,.77,3,2.58Z" transform="translate(-0.51 -7.45)"/><path class="cls-3" d="M78.21,8.36A2.07,2.07,0,0,0,76,10.61v24.3c0,1.62-.72,2.66-2.39,2.66H71c-1.8,0-2.44-1-2.44-2.57V14.23a2.17,2.17,0,1,0-4.33,0V35c0,1.58-.63,2.57-2.44,2.57H59.25c-1.67,0-2.4-1-2.4-2.66V10.61a2.21,2.21,0,1,0-4.42,0V34.82c0,4.51,2.71,6.91,6.91,6.91h2.29c3,0,4-.24,4.8-2,.78,1.79,1.79,2,4.79,2h2.3c4.2,0,6.91-2.4,6.91-6.91V10.61a2.08,2.08,0,0,0-2.22-2.25" transform="translate(-0.51 -7.45)"/></g><text class="cls-4" transform="translate(88.8 6.9) scale(1 1.01)"><tspan class="cls-5">Le</tspan><tspan x="9.06" y="0">i</tspan></text><text class="cls-4" transform="translate(100.31 6.9) scale(1 1.01)">b</text><text class="cls-4" transform="translate(104.71 6.9) scale(1 1.01)"><tspan class="cls-6">n</tspan><tspan x="4.82" y="0">i</tspan></text><text class="cls-4" transform="translate(111.98 6.9) scale(1 1.01)">z</text><text class="cls-4" transform="translate(115.94 6.9) scale(1 1.01)">-</text><text class="cls-4" transform="translate(118.79 6.9) scale(1 1.01)">I</text><text class="cls-7" transform="translate(121.99 6.9) scale(1 1.01)">n<tspan class="cls-8" x="4.82" y="0">f</tspan></text><text class="cls-4" transform="translate(129.53 6.9) scale(1 1.01)">o</text><text class="cls-4" transform="translate(133.84 6.9) scale(1 1.01)"><tspan class="cls-9">r</tspan><tspan x="3.41" y="0">m</tspan></text><text class="cls-4" transform="translate(144.32 6.9) scale(1 1.01)">a</text><text class="cls-4" transform="translate(148.22 6.9) scale(1 1.01)"><tspan class="cls-6">t</tspan><tspan x="3" y="0">i</tspan></text><text class="cls-4" transform="translate(153.68 6.9) scale(1 1.01)">o</text><text class="cls-4" transform="translate(157.98 6.9) scale(1 1.01)">n</text><text class="cls-4" transform="translate(162.8 6.9) scale(1 1.01)">s</text><text class="cls-4" transform="translate(166.32 6.9) scale(1 1.01)">z</text><text class="cls-4" transform="translate(170.18 6.9) scale(1 1.01)">e</text><text class="cls-4" transform="translate(174.15 6.9) scale(1 1.01)">n</text><text class="cls-4" transform="translate(178.87 6.9) scale(1 1.01)">t</text><text class="cls-4" transform="translate(181.87 6.9) scale(1 1.01)">r</text><text class="cls-4" transform="translate(185.32 6.9) scale(1 1.01)"><tspan class="cls-6">um</tspan><tspan x="11.73" y="0"> </tspan></text><text class="cls-4" transform="translate(88.8 15.85) scale(1 1.01)"><tspan class="cls-5">W</tspan><tspan class="cls-9" x="7.9" y="0">i</tspan><tspan class="cls-10" x="10.35" y="0">r</tspan><tspan x="13.76" y="0">t</tspan></text><text class="cls-4" transform="translate(105.57 15.85) scale(1 1.01)">s</text><text class="cls-7" transform="translate(109.02 15.85) scale(1 1.01)">ch<tspan class="cls-11" x="8.51" y="0">a</tspan></text><text class="cls-4" transform="translate(121.52 15.85) scale(1 1.01)">f</text><text class="cls-4" transform="translate(124.29 15.85) scale(1 1.01)">t</text><text class="cls-4" transform="translate(88.8 24.81) scale(1 1.01)"><tspan class="cls-5">Le</tspan><tspan x="9.06" y="0">i</tspan></text><text class="cls-4" transform="translate(100.31 24.81) scale(1 1.01)">b</text><text class="cls-4" transform="translate(104.71 24.81) scale(1 1.01)"><tspan class="cls-6">ni</tspan><tspan x="7.27" y="0">z</tspan></text><text class="cls-4" transform="translate(115.82 24.81) scale(1 1.01)"> </text><text class="cls-4" transform="translate(117.7 24.81) scale(1 1.01)">I</text><text class="cls-7" transform="translate(120.9 24.81) scale(1 1.01)">n<tspan class="cls-8" x="4.82" y="0">f</tspan></text><text class="cls-4" transform="translate(128.44 24.81) scale(1 1.01)">o</text><text class="cls-4" transform="translate(132.75 24.81) scale(1 1.01)"><tspan class="cls-9">r</tspan><tspan x="3.41" y="0">m</tspan></text><text class="cls-4" transform="translate(143.23 24.81) scale(1 1.01)">a</text><text class="cls-4" transform="translate(147.13 24.81) scale(1 1.01)"><tspan class="cls-6">t</tspan><tspan x="3" y="0">i</tspan></text><text class="cls-4" transform="translate(152.59 24.81) scale(1 1.01)">o</text><text class="cls-4" transform="translate(156.89 24.81) scale(1 1.01)">n</text><text class="cls-4" transform="translate(161.71 24.81) scale(1 1.01)"> </text><text class="cls-4" transform="translate(163.35 24.81) scale(1 1.01)">C</text><text class="cls-4" transform="translate(168.74 24.81) scale(1 1.01)">e</text><text class="cls-4" transform="translate(172.75 24.81) scale(1 1.01)">n</text><text class="cls-4" transform="translate(177.47 24.81) scale(1 1.01)"><tspan class="cls-6">t</tspan><tspan class="cls-9" x="3" y="0">r</tspan><tspan class="cls-12" x="6.41" y="0">e</tspan><tspan x="10.42" y="0"> </tspan></text><text class="cls-4" transform="translate(88.8 33.59) scale(1 1.01)">f</text><text class="cls-4" transform="translate(91.52 33.59) scale(1 1.01)">o</text><text class="cls-4" transform="translate(95.82 33.59) scale(1 1.01)">r</text><text class="cls-4" transform="translate(99.24 33.59) scale(1 1.01)"> </text><text class="cls-4" transform="translate(101.04 33.59) scale(1 1.01)"><tspan class="cls-6">E</tspan><tspan x="5.41" y="0">c</tspan></text><text class="cls-4" transform="translate(110.24 33.59) scale(1 1.01)">o</text><text class="cls-4" transform="translate(114.55 33.59) scale(1 1.01)">n</text><text class="cls-4" transform="translate(119.29 33.59) scale(1 1.01)">o</text><text class="cls-4" transform="translate(123.59 33.59) scale(1 1.01)"><tspan class="cls-6">mi</tspan><tspan class="cls-9" x="9.52" y="0">c</tspan><tspan x="13.3" y="0">s</tspan></text></g></svg>